<svg width="48" height="48" viewBox="0 0 48 48" fill="none" xmlns="http://www.w3.org/2000/svg">
<circle cx="24" cy="24" r="23" stroke="white" stroke-width="2"/>
<path d="M27.2 24C27.2 24.6329 27.0123 25.2516 26.6607 25.7778C26.3091 26.3041 25.8093 26.7142 25.2246 26.9564C24.6399 27.1986 23.9965 27.262 23.3757 27.1385C22.755 27.015 22.1848 26.7103 21.7373 26.2627C21.2897 25.8152 20.985 25.245 20.8615 24.6243C20.738 24.0035 20.8014 23.3601 21.0436 22.7754C21.2858 22.1907 21.6959 21.6909 22.2222 21.3393C22.7484 20.9877 23.3671 20.8 24 20.8C24.8484 20.801 25.6618 21.1384 26.2617 21.7383C26.8616 22.3382 27.199 23.1516 27.2 24ZM34 19.6V28.4C33.9983 29.8847 33.4078 31.3081 32.3579 32.3579C31.3081 33.4078 29.8847 33.9983 28.4 34H19.6C18.1153 33.9983 16.6919 33.4078 15.6421 32.3579C14.5922 31.3081 14.0017 29.8847 14 28.4V19.6C14.0017 18.1153 14.5922 16.6919 15.6421 15.6421C16.6919 14.5922 18.1153 14.0017 19.6 14H28.4C29.8847 14.0017 31.3081 14.5922 32.3579 15.6421C33.4078 16.6919 33.9983 18.1153 34 19.6ZM28.8 24C28.8 23.0506 28.5185 22.1226 27.9911 21.3333C27.4636 20.5439 26.714 19.9287 25.8369 19.5654C24.9598 19.2021 23.9947 19.107 23.0636 19.2922C22.1325 19.4774 21.2772 19.9346 20.6059 20.6059C19.9346 21.2772 19.4774 22.1325 19.2922 23.0636C19.107 23.9947 19.2021 24.9598 19.5654 25.8369C19.9287 26.714 20.5439 27.4636 21.3333 27.9911C22.1226 28.5185 23.0506 28.8 24 28.8C25.2726 28.7986 26.4927 28.2924 27.3925 27.3925C28.2924 26.4927 28.7986 25.2726 28.8 24ZM30.4 18.8C30.4 18.5627 30.3296 18.3307 30.1978 18.1333C30.0659 17.936 29.8785 17.7822 29.6592 17.6913C29.4399 17.6005 29.1987 17.5768 28.9659 17.6231C28.7331 17.6694 28.5193 17.7836 28.3515 17.9515C28.1837 18.1193 28.0694 18.3331 28.0231 18.5659C27.9768 18.7987 28.0005 19.0399 28.0913 19.2592C28.1822 19.4785 28.336 19.6659 28.5333 19.7978C28.7307 19.9296 28.9627 20 29.2 20C29.5183 20 29.8235 19.8736 30.0485 19.6485C30.2736 19.4235 30.4 19.1183 30.4 18.8Z" fill="white"/>
</svg>
